<svg xmlns="http://www.w3.org/2000/svg" width="32" height="32" viewBox="0 0 32 32" fill="none">
  <path d="M19.7723 8.45737L23.5429 12.2294M24.2976 5.44137L26.5603 7.70404C26.7602 7.90405 26.8724 8.17526 26.8724 8.45804C26.8724 8.74081 26.7602 9.01202 26.5603 9.21204L11.2856 24.4854L6.57227 25.428L7.51493 20.7147L22.7883 5.44004C22.8873 5.34086 23.005 5.26219 23.1345 5.20851C23.264 5.15483 23.4028 5.1272 23.5429 5.1272C23.6831 5.1272 23.8219 5.15483 23.9514 5.20851C24.0809 5.26219 24.1985 5.34219 24.2976 5.44137Z" stroke="black" stroke-width="2" stroke-miterlimit="10" stroke-linecap="round" stroke-linejoin="round"/>
  <path d="M23 23L23.5 21L24 23L26 23.5L24 24L23.5 26L23 24L21 23.5L23 23Z" fill="black" stroke="black" stroke-width="2" stroke-miterlimit="10" stroke-linecap="round" stroke-linejoin="round"/>
  <path d="M7.27889 7.09577L7.755 5.19133C7.81814 4.93622 8.18186 4.93622 8.245 5.19133L8.72111 7.09577C8.73226 7.13998 8.75518 7.18034 8.78742 7.21258C8.81966 7.24482 8.86002 7.26774 8.90423 7.27889L10.8087 7.755C11.0638 7.81814 11.0638 8.18186 10.8087 8.245L8.90423 8.72111C8.86002 8.73226 8.81966 8.75518 8.78742 8.78742C8.75518 8.81966 8.73226 8.86002 8.72111 8.90423L8.245 10.8087C8.18186 11.0638 7.81814 11.0638 7.755 10.8087L7.27889 8.90423C7.26774 8.86002 7.24482 8.81966 7.21258 8.78742C7.18034 8.75518 7.13998 8.73226 7.09577 8.72111L5.19133 8.245C4.93622 8.18186 4.93622 7.81814 5.19133 7.755L7.09577 7.27889C7.13998 7.26774 7.18034 7.24482 7.21258 7.21258C7.24482 7.18034 7.26774 7.13998 7.27889 7.09577Z" fill="black" stroke="black" stroke-width="2" stroke-miterlimit="10" stroke-linecap="round" stroke-linejoin="round"/>
</svg>
