<svg width="100" height="100" viewBox="0 0 100 100" fill="none" xmlns="http://www.w3.org/2000/svg">
<g clip-path="url(#clip0_1193_10831)">
<path d="M50 100C77.6142 100 100 77.6142 100 50C100 22.3858 77.6142 0 50 0C22.3858 0 0 22.3858 0 50C0 77.6142 22.3858 100 50 100Z" fill="#E60023"/>
<path d="M77.5 52.5004H52.5V77.5004H77.5V52.5004Z" fill="white"/>
<path d="M41.2502 52.5004H22.5002V65.0004H41.2502C44.7015 65.0004 47.5002 62.2017 47.5002 58.7504C47.5002 55.2992 44.7015 52.5004 41.2502 52.5004Z" fill="white"/>
<path d="M22.5002 71.25C22.5002 74.7013 25.299 77.5 28.7502 77.5H47.5002V65H28.7502C25.299 65 22.5002 67.7987 22.5002 71.25Z" fill="white"/>
<path d="M71.2502 22.5004H52.5002V35.0004H71.2502C74.7015 35.0004 77.5002 32.2017 77.5002 28.7504C77.5002 25.2992 74.7015 22.5004 71.2502 22.5004Z" fill="white"/>
<path d="M52.5002 41.2508C52.5002 44.7021 55.299 47.5008 58.7502 47.5008H77.5002V35.0008H58.7502C55.299 35.0008 52.5002 37.7996 52.5002 41.2508Z" fill="white"/>
<path d="M47.5 35C47.5 28.0964 41.9036 22.5 35 22.5C28.0964 22.5 22.5 28.0964 22.5 35C22.5 41.9036 28.0964 47.5 35 47.5C41.9036 47.5 47.5 41.9036 47.5 35Z" fill="white"/>
</g>
<defs>
<clipPath id="clip0_1193_10831">
<rect width="100" height="100" fill="white"/>
</clipPath>
</defs>
</svg>
