<svg width="22" height="22" viewBox="0 0 22 22" fill="none" xmlns="http://www.w3.org/2000/svg">
<g clip-path="url(#clip0_641_3683)">
<path d="M22 12H12V22H22V12Z" fill="#E60023"/>
<path d="M7.50006 12H6.10352e-05V17H7.50006C8.88056 17 10.0001 15.8805 10.0001 14.5C10.0001 13.1195 8.88056 12 7.50006 12Z" fill="#E60023"/>
<path d="M0.00012207 19.5C0.00012207 20.8805 1.11962 22 2.50012 22H10.0001V17H2.50012C1.11962 17 0.00012207 18.1195 0.00012207 19.5Z" fill="#E60023"/>
<path d="M19.5001 0H12.0001V5H19.5001C20.8806 5 22.0001 3.8805 22.0001 2.5C22.0001 1.1195 20.8806 0 19.5001 0Z" fill="#E60023"/>
<path d="M12.0001 7.5C12.0001 8.8805 13.1196 10 14.5001 10H22.0001V5H14.5001C13.1196 5 12.0001 6.1195 12.0001 7.5Z" fill="#E60023"/>
<path d="M10 5C10 2.23858 7.76142 0 5 0C2.23858 0 0 2.23858 0 5C0 7.76142 2.23858 10 5 10C7.76142 10 10 7.76142 10 5Z" fill="#E60023"/>
</g>
<defs>
<clipPath id="clip0_641_3683">
<rect width="22.0001" height="22" fill="white"/>
</clipPath>
</defs>
</svg>
